<svg version="1" xmlns="http://www.w3.org/2000/svg" width="682.667" height="682.667" viewBox="0 0 512.000000 512.000000"><path d="M265.6 70.1c-.2.8-.9 7.5-1.6 14.9-.6 7.4-1.4 14.8-1.7 16.3l-.6 2.8-4.9-4.8c-2.7-2.6-5.9-6.4-7.1-8.3-1.9-3.2-3.8-5.2-4.4-4.7-.1.1-1.3 5.4-2.7 11.7-3.8 16.7-17 52-19.5 52-1.2 0-5.9-9.5-6.7-13.7-.4-1.8-1.3-3.8-2-4.4-1.6-1.3-2.8 1.1-3.9 7.7-.4 2.2-2.5 8.5-4.8 14.2-3.1 7.9-4.5 10.3-6.1 10.7-1.2.2-9.1.9-17.6 1.5-25.1 1.7-58.3 5.1-61 6.1-1.7.6 2.9.7 13.5.4 8.8-.3 26.7-.8 39.8-1.1l23.8-.7-4.4 9.4c-2.4 5.2-8.1 16.9-12.7 26.1-9.6 19.6-7.1 18.2-26.2 14.2-29.4-6.2-46.7-15.2-49.7-25.9-.8-3.1-.7-4.8 1-9.4 4-10.9 3.7-11-5.7-1.4-7.7 7.8-10.2 9.7-18.4 13.7-5.2 2.5-14.8 6-21.2 7.8-6.5 1.8-11.8 3.6-11.8 4 0 .4 5.2 5 11.5 10.3 16.3 13.6 20.4 19.3 23 32.3.9 4.2 2 3.3 3.9-3.1 2.2-7.3 5.1-11.6 9.1-13.3 5.7-2.3 22.1-1.7 68.3 2.6.6 0-18.5 36.4-25.1 48-3.3 5.8-8 13.4-10.4 16.9-4.6 6.6-4.5 8.9.1 7.1 6.5-2.4 124.5-28.5 125.3-27.6 1 1-8.7 7.1-19.5 12.4-6.4 3.1-11 5.8-10.5 6.3s5.7-.2 12-1.6c6.2-1.4 39.6-7.7 74.4-14 34.8-6.4 64.6-11.9 66.2-12.3 2.9-.7 2.7-.9-3.4-2.6-3.5-1-7.7-2.5-9.4-3.3-3.9-2.1-8.5-6.3-8.5-8 0-.7-.4-1.3-.8-1.3-1.1 0-11.2-21.1-11.2-23.4 0-.9.6-1.6 1.2-1.6 5.1 0 34.7-3.3 36.3-4 1.5-.7.8-.8-2.5-.5-2.5.2-11.9.7-21 1l-16.5.6-2.7-6.8c-11.2-28.1-17.3-45.1-16.5-45.9.8-.8 24.2 3.3 34.3 6 13.2 3.6 19.9 6.3 26.6 11 9.8 6.7 11.9 13.3 7.8 25.1-1.1 3.2-1.9 6-1.7 6.2.2.2 2.7-2.5 5.6-5.8 10.3-12.3 22.4-19.2 44.6-25.5 5.3-1.5 9.4-3 9.3-3.4-.2-.5-6.1-5.6-13.1-11.5-14-11.8-17.3-16.2-20.3-27.2-.9-3.5-2-6.3-2.4-6.3-.4 0-1.4 2.8-2.4 6.2-2.3 8.3-7.2 13.3-14.1 14.4-3.1.4-16.9-.1-35.5-1.5-16.8-1.2-32.8-2.2-35.7-2.1-9.4 0-9.1.4-16-20.6-3.4-10.4-6.8-20.9-7.5-23.3-.8-2.5-1.9-4.6-2.5-4.8-1.6-.6-3.2 5.1-3.8 12.9-.5 6.5-3 14.8-4.4 14.8-1.5 0-5.1-4.7-7.1-9.2-1.1-2.6-3.1-9.1-4.5-14.5-1.3-5.4-4-15.3-5.9-22-2-6.7-3.8-15.2-4.2-18.8-.6-6.2-2.9-10.5-3.8-7.4zM404.8 314.2c-1.2 1.8-1.7 1.9-3.5.9-4.9-2.6-13.3-1.6-18.5 2.1-2.5 1.7-3.9 4.1-6.5 10.8-1.1 3.1-.9 15.3.5 20.2.9 3.3.7 3.9-1.5 6l-2.4 2.3 3.2 2.6c3.2 2.6 3.3 2.6 4.9.7 1.5-1.8 1.8-1.9 5-.6 4.3 1.8 10.2 1.3 15.1-1.3 3.8-1.9 7.7-8.2 8.5-13.6.6-5.1.3-17.8-.6-17.8-.1 0-.3-.9-.5-1.9-.2-1.1.5-3.1 1.6-4.4 2.5-3.2 2.4-3.4-1-6l-2.9-2.1-1.4 2.1zm-7.1 8.4c.4 1.1-12.1 19.4-13.3 19.4-1.1 0 .9-14.8 2.4-17.4 2.5-4.3 9.5-5.6 10.9-2zm3.7 18.2c-.6 9-4.3 13.5-10 12.4-4.7-.9-4.4-2.4 2.5-11.8 7.2-10 8.1-10.1 7.5-.6zM85.2 315.1l-3.2 2.1 1.9 3.2c1.7 2.8 1.9 5 1.7 21.4l-.1 18.2h9v-6.5c0-3.6-.3-6.5-.7-6.5-.4 0-.4-1 0-2.3.4-1.2.7-3.7.7-5.5-.1-3.5 1.1-4.3 2.3-1.5 1.1 2.7 5.6 9.3 6.4 9.3.4 0 2.6-2.8 5-6.2 5.1-7.2 5.1-7.1 4.6 8.8l-.3 10.4h9.1l-.2-18.6c-.2-18-.1-18.6 2.1-21.2l2.3-2.7-3.4-2.2c-1.8-1.3-3.7-2.3-4.1-2.2-.4 0-2.5 2.6-4.5 5.7s-5.1 7.7-6.8 10.1l-3.2 4.4-1.9-2.4c-1.1-1.3-4.2-5.9-7.1-10.2-2.8-4.2-5.4-7.7-5.7-7.7-.3 0-2.1 1-3.9 2.1zM235 314.6c-1.9.8-3.5 1.6-3.7 1.8-.2.1 2.5 5.6 5.9 12.2l6.2 11.9-.1 9.8-.1 9.8 4.5-.3 4.6-.3-.2-9.1-.2-9.2 4.9-9.3c2.6-5.2 5.6-10.6 6.6-12.1 1.7-2.6 1.7-2.6-1.7-4.7-1.9-1.2-3.7-2.1-4-2.1-.2 0-2.4 4-4.8 9-2.3 4.9-4.5 9-4.9 9-.4 0-2.6-4.1-4.9-9-2.3-5-4.3-9-4.4-9-.1.1-1.8.8-3.7 1.6zM333.2 315.2l-3.2 2 2 3.4c2 3.1 2.1 4.6 1.8 21.4l-.3 18h9l-.3-13.2-.3-13.3 4.1 6.2c2.3 3.5 4.5 6.5 4.9 6.8.5.2 2.1-1.4 3.7-3.8 6.6-9.7 6.6-9.7 6.2 4.6l-.3 12.7h9.1l-.1-18.7c-.1-17.8 0-18.8 2.1-21.2l2.2-2.6-3.4-2.2c-3.8-2.7-5.4-2.9-5.4-.8 0 .8-.5 1.5-1.1 1.5-.5 0-.7.4-.4 1 .3.5.3 1-.2 1-.4 0-3 3.4-5.8 7.5-2.7 4.1-5.3 7.5-5.7 7.5-.5 0-3.8-4.5-7.4-10-3.7-5.5-7-10-7.3-9.9-.3 0-2.1 1-3.9 2.1zM33.6 322.5c.3 6.9.1 8.7-1.1 9.1-1 .4-1.4 1.9-1.3 4.5.1 2.1.5 3.6.9 3.3 1.1-.6 2.1 3.3 1.4 5.5-.3 1.1-.1 2.2.5 2.6.6.3.7 1.2.3 1.8-.4.6-.8 3.3-.9 5.9l-.2 4.8h9.4v-10.3l-.1-10.2h13l-.1 10.2-.1 10.3h9.2v-46h-9.4l.3 9 .3 9.1-6.6-.3-6.6-.3.1-8.8.2-8.7h-9.6l.4 8.5zM70.4 337v23h9.1v-46h-9.1v23zM139.4 315.7c-.4 1-.8 2.1-.9 2.5-.2.5-.3.9-.5 1-.1.2-.3 1.1-.5 2-.9 4.6-4.9 16.4-5.8 17-.6.3-1.6.4-2.4.1-1-.4-1.3.3-1.1 2.8.1 1.9.5 3.9 1 4.5.4.6.2 2.9-.6 5.2-.8 2.2-1.2 4.3-.9 4.6.4.3.1.6-.5.6-2.9 0-.8 2.8 2.8 3.9 3.9 1.2 6.5.8 5.6-.8-.5-.8.8-6.8 2.5-11.2.9-2.3 1.4-2.5 7.4-2.5l6.4.1 1.5 5.6c.9 3 1.6 6.3 1.6 7.2 0 .9.4 1.8.8 2.1 1.3.8 9.2-1.5 8.6-2.6-.6-.9-1.1-2.6-8.2-26.8-5.5-18.6-4.5-17-10.7-17-4.1 0-5.5.4-6.1 1.7zm9.1 17.8l1.3 4-4 .3c-2.2.2-4.2.1-4.4-.1-.2-.2.6-3.6 1.8-7.6 2.3-7.2 2.3-7.2 3.2-3.9.5 1.8 1.4 5.1 2.1 7.3zM167.6 327.1c.1 7.1.4 13.3.7 13.6.3.3.4 1 .1 1.6-.2.7-.6 4.9-.8 9.5l-.3 8.3 14.1-.2c7.7-.1 15.3.2 16.8.6 2.5.6 2.7.4 3.8-3.7.6-2.3 1.6-5.9 2.3-7.8 1.2-3.4 1.3-3.4 7.5-3.5l6.3-.1 1.4 5.1c.8 2.7 1.6 6.1 1.9 7.5.4 2.6 1.6 2.8 7.4 1.5 1.8-.4 2.2-1 1.7-2.3-.4-.9-.9-2.7-1-3.9-.2-1.2-.7-2.8-1.1-3.5-.5-.7-.9-1.5-1-1.8-.2-1.6-2.6-9.9-3.5-12-.5-1.4-1.1-3.4-1.4-4.5-.8-3.7-4.3-15.4-5-16.5-.3-.5-3-1-5.9-1h-5.3l-3.4 11.2c-1.9 6.2-3.3 11.6-3.1 12 .1.5-.9.8-2.3.8s-2.5.6-2.6 1.2c-.3 2.9.4 6.3 1.2 6.6.5.2.4 1.3-.3 2.5-.6 1.2-1.1 2.3-1 2.4.1.2-.1 1.7-.5 3.3-.7 3.7-2.2 5-1.9 1.6.4-3.1-.4-3.4-8.6-3-4.5.2-6.7 0-7-.9-.3-.7-.4-9.4-.3-19.5l.1-18.2h-9.2l.2 13.1zm45.4-1c0 1.1.4 2.8.9 3.7.4.9 1.1 3.1 1.4 4.8.5 2.7.3 3.2-1.6 3.6-1.2.2-3.1.2-4.3-.1l-2.1-.6 2-7.2c1.8-6.7 3.7-8.8 3.7-4.2zM277.5 317.2c-.4 1.8-.9 4.2-1.1 5.2-.3 1.1-.8 2.4-1.2 3-.5.6-.8 1.8-.7 2.6 0 .8-.3 1.7-.7 2-.5.4-1.3 3.6-1.7 7.2-.1.5-1.2.8-2.6.8-2.2 0-2.5.4-2.5 4 0 2.2.4 4 .9 4 1.2 0 .8 1.9-1.3 7.9-.9 2.4-1.6 4.5-1.6 4.7 0 .6 8 2.7 8.5 2.3.2-.3.7-2.3 1.1-4.5.3-2.1 1-4.7 1.5-5.7.5-.9.7-1.7.4-1.7-.3 0-.1-.8.4-1.8.8-1.4 2.1-1.8 7-1.7 3.3 0 6.3.3 6.6.6.3.3 1.2 3.7 2.2 7.5.9 3.8 1.7 7 1.8 7.2.2.2 2.3-.2 4.9-.9 3.7-.9 4.4-1.4 3.7-2.8-.5-.9-2.7-7.9-5-15.6-2.2-7.7-5-17-6.1-20.8l-2.1-6.7h-5.8c-5.8 0-5.9 0-6.6 3.2zm9.3 14l2 6.8h-4.5c-4.2 0-4.4-.1-3.7-2.3.4-1.2.8-2.9.9-3.7 0-.9.3-2 .7-2.5.3-.6.9-2.4 1.3-4 .4-1.7.9-2.6 1.1-2 .1.5 1.2 4 2.2 7.7zM415.8 314.2c0 .2-.2 10.5-.3 23l-.1 22.8h9.2l-.2-6.6c-.2-3.6-.5-6.8-.8-7.1-.2-.3-.1-1.6.4-2.9.6-1.4.6-2.6-.1-2.9-.5-.4-.7-1.1-.3-1.6.9-1.6 1.9-.3 8.5 10.8 3.4 6 6.4 10.9 6.5 11.1.3.5 7.4-3.2 7.4-3.9 0-.4-2-3.8-4.5-7.6-4.9-7.4-5.4-9.3-2.8-11.4 4.1-3.5 5.7-14.4 2.7-18.8-2.6-3.6-7.4-5.1-16.9-5.1-4.7 0-8.6.1-8.7.2zm17.9 9.4c1.6 2.2 1.6 3.6.1 6.9-1.2 2.7-2.3 3.2-3.3 1.4-.5-.7-1.6-.2-3.2 1.2-2 1.9-2.6 2.1-3.3.9-.5-.8-.6-1.9-.2-2.4.3-.6.5-3.2.5-5.7l-.2-4.7 4.1.3c2.6.1 4.6.9 5.5 2.1zM450.1 321.2c.3 10.1.1 11.8-1.4 11.8-.8 0-1.2 1.3-1.2 3.7.1 2.6.6 3.8 1.5 3.8 1.2 0 1.4 2 1.3 9.7l-.2 9.8h26.5v-7.6l-8 .2c-4.4.1-8.5 0-9.1-.2-.6-.3-.9-3-.7-6.5l.4-6.1 6.9.4 6.9.4V333h-14v-11.9l8 .3 8 .2V314h-25.1l.2 7.2z"/></svg>